<svg width="38" height="48" viewBox="0 0 38 48" fill="none" xmlns="http://www.w3.org/2000/svg">
<path d="M36.7188 22.9688C37.1875 24.1875 36.9062 25.5 35.875 26.3438L11.9688 47.3438C11.4062 47.8125 10.6562 48 10 48C9.34375 48 8.6875 47.8125 8.125 47.4375C7 46.5 6.625 45 7.28125 43.6875L15.625 27H4C2.6875 27 1.5625 26.25 1.1875 25.125C0.71875 23.9062 1 22.5938 1.9375 21.75L25.9375 0.75C26.5 0.28125 27.1562 0 27.9062 0C28.5625 0 29.2188 0.28125 29.6875 0.65625C30.8125 1.59375 31.1875 3.09375 30.5312 4.40625L22.1875 21.0938H33.9062C35.125 21.0938 36.25 21.8438 36.7188 22.9688ZM10 45L33.9062 24.0938H22.1875C21.1562 24.0938 20.2188 23.5312 19.6562 22.5938C19.0938 21.75 19.0938 20.625 19.5625 19.6875L27.9062 3L4 24H15.625C16.6562 24 17.5938 24.4688 18.1562 25.4062C18.7188 26.25 18.7188 27.375 18.25 28.3125L10 45Z" fill="url(#paint0_linear_49_213)"/>
<defs>
<linearGradient id="paint0_linear_49_213" x1="-1.38775" y1="-2.97248" x2="46.5512" y2="41.6245" gradientUnits="userSpaceOnUse">
<stop/>
<stop offset="0.455045" stop-color="#1E00CA"/>
<stop offset="1" stop-color="#8C2ABF"/>
</linearGradient>
</defs>
</svg>
