<svg width="46" height="46" viewBox="0 0 46 46" fill="none" xmlns="http://www.w3.org/2000/svg">
<path d="M23 0.5C35.375 0.5 45.5 10.625 45.5 23C45.5 35.4688 35.1875 45.5 22.9062 45.5C10.5312 45.5 0.5 35.4688 0.5 23C0.5 17.75 2.28125 12.5938 5.75 8.5625C6.21875 7.90625 7.15625 7.90625 7.8125 8.375C8.46875 8.9375 8.5625 9.875 8 10.5312C5.09375 14 3.5 18.5 3.5 23C3.5 33.7812 12.2188 42.5 23 42.5C33.6875 42.5 42.5 33.7812 42.5 23C42.5 12.7812 34.5312 4.34375 24.5 3.59375V9.5C24.5 10.3438 23.75 11 23 11C22.1562 11 21.5 10.3438 21.5 9.5V2C21.5 1.25 22.1562 0.5 23 0.5ZM21.875 24.125L14.375 16.625C13.8125 16.0625 13.8125 15.0312 14.375 14.4688C14.9375 13.9062 15.9688 13.9062 16.5312 14.4688L24.0312 21.9688C24.5938 22.5312 24.5938 23.5625 24.0312 24.125C23.75 24.4062 23.375 24.5 23 24.5C22.5312 24.5 22.1562 24.4062 21.875 24.125Z" fill="url(#paint0_linear_49_212)"/>
<defs>
<linearGradient id="paint0_linear_49_212" x1="-4.18367" y1="-3.97248" x2="42.7864" y2="54.2884" gradientUnits="userSpaceOnUse">
<stop/>
<stop offset="0.455045" stop-color="#1E00CA"/>
<stop offset="1" stop-color="#8C2ABF"/>
</linearGradient>
</defs>
</svg>
