<svg width="50" height="42" viewBox="0 0 50 42" fill="none" xmlns="http://www.w3.org/2000/svg">
<path d="M25 30.75C26.2188 30.75 27.25 31.7812 27.1562 33C27.1562 34.3125 26.2188 35.25 25 35.25C23.7812 35.25 22.75 34.3125 22.75 33C22.75 31.7812 23.6875 30.75 25 30.75ZM25 27C24.1562 27 23.5 26.3438 23.5 25.5V12C23.5 11.25 24.25 10.5 25 10.5C25.6562 10.5 26.4062 11.25 26.4062 12V25.5C26.4062 26.3438 25.75 27 25 27ZM48.25 34.3125C49.1875 35.9062 49.1875 37.7812 48.25 39.375C47.3125 41.0625 45.625 42 43.75 42H6.25C4.28125 42 2.59375 41.0625 1.65625 39.375C0.71875 37.7812 0.71875 35.9062 1.65625 34.3125L20.4062 2.625C21.3438 1.03125 23.0312 0 25 0C26.875 0.09375 28.5625 1.03125 29.5 2.625L48.25 34.3125ZM45.625 37.875C46.0938 37.2188 46 36.4688 45.625 35.8125L26.875 4.125C26.5 3.46875 25.75 3.09375 25 3C24.9062 3 25 3 25 3C24.1562 3 23.4062 3.46875 23.0312 4.125L4.28125 35.8125C3.90625 36.4688 3.8125 37.2188 4.28125 37.875C4.65625 38.625 5.40625 39 6.25 39H43.6562C44.5 39 45.25 38.625 45.625 37.875Z" fill="url(#paint0_linear_49_209)"/>
<defs>
<linearGradient id="paint0_linear_49_209" x1="-2.18367" y1="-5.97248" x2="44.7864" y2="52.2884" gradientUnits="userSpaceOnUse">
<stop/>
<stop offset="0.455045" stop-color="#1E00CA"/>
<stop offset="1" stop-color="#8C2ABF"/>
</linearGradient>
</defs>
</svg>
